<svg width="750" height="557" viewBox="0 0 750 557" fill="none" xmlns="http://www.w3.org/2000/svg">
<path opacity="0.1" d="M749.869 137.45C749.817 138.615 749.746 139.795 749.656 140.921C748.892 151.048 746.853 160.974 743.61 170.354C732.726 201.631 711.003 225.426 687.794 244.537L686.328 245.733C682.13 249.15 677.86 252.45 673.564 255.679L673.222 255.937L672.964 256.133L672.182 256.711C671.568 257.181 670.948 257.634 670.335 258.095L669.308 258.877L664.592 262.349L660.439 265.375C657.816 267.289 655.192 269.204 652.565 271.123C643.806 277.503 635.092 283.978 626.663 290.961L625.371 292.055C624.725 292.564 624.15 293.08 623.549 293.619C620.384 296.309 617.271 299.09 614.209 301.962C613.609 302.518 613.008 303.089 612.414 303.675C606.335 309.571 600.47 316.28 596.065 323.912C592.325 330.41 589.651 337.572 588.85 345.485C587.558 357.997 591.111 370.062 596.065 381.846C599.256 389.423 603.041 396.89 606.51 404.319C607.64 406.751 608.738 409.175 609.739 411.599C611.605 415.873 613.218 420.302 614.565 424.853C617.329 434.557 618.137 444.284 614.959 454.199C611.477 465.076 604.43 472.043 596.033 477.657C591.511 480.668 586.647 483.279 581.712 485.907C574.659 489.644 567.502 493.413 561.255 498.332C560.859 498.634 560.472 498.947 560.093 499.27C559.279 499.932 558.482 500.623 557.703 501.342C556.411 502.531 555.171 503.798 553.969 505.111C553.259 505.898 552.561 506.706 551.876 507.535C551.334 508.176 550.791 508.841 550.261 509.521C549.241 510.812 548.246 512.141 547.271 513.486L546.502 514.565C545.787 515.608 545.077 516.635 544.37 517.646C543.453 518.991 542.555 520.351 541.658 521.72C540.366 523.675 539.074 525.629 537.821 527.584C537.446 528.147 537.078 528.702 536.716 529.266C534.61 532.393 532.498 535.521 530.257 538.414L529.992 538.758C524.682 545.639 518.811 551.457 511.408 554.569C493.561 562.076 475.882 550.878 458.732 538.93L458.254 538.586L458.041 538.438L456.568 537.406L455.877 536.921C454.127 535.685 452.376 534.45 450.632 533.246L450.212 532.948C447.751 531.252 445.31 529.602 442.881 528.046C441.417 527.107 439.937 526.211 438.443 525.356C433.506 522.488 428.418 520.017 423.212 517.959C416.415 515.249 409.445 513.217 402.374 511.883C399.497 511.325 396.606 510.89 393.699 510.577C391.826 510.374 389.94 510.21 388.054 510.1C372.758 509.155 357.443 511.409 342.78 516.762C340.784 517.497 338.794 518.326 336.831 519.155C336.463 519.304 336.101 519.468 335.746 519.624C333.924 520.406 332.122 521.29 330.339 522.205L329.693 522.525C329.664 522.552 329.631 522.573 329.596 522.588C320.398 527.373 311.51 533.48 302.344 538.266C301.53 538.688 300.716 539.102 299.89 539.509C294.189 542.424 288.201 544.437 282.075 545.499C275.754 546.406 269.359 546.211 263.084 544.92C257.425 543.772 251.832 542.184 246.341 540.166H246.283L245.934 540.033C245.424 539.853 244.907 539.673 244.397 539.478L243.712 539.235L242.815 538.899C229.896 534.114 216.945 528.437 203.626 526.881C202.98 526.81 202.334 526.74 201.688 526.685C197.559 526.346 193.416 526.383 189.292 526.795C176.916 527.952 164.605 532.002 152.358 536.264L151.595 536.522C150.949 536.757 150.265 536.983 149.599 537.226L148.159 537.726L145.362 538.696L144.716 538.915C124.524 545.952 104.539 551.965 84.8054 544.998C76.1563 541.941 68.3921 536.608 61.2804 529.985C56.1895 525.177 51.4047 519.913 46.9664 514.237C42.8001 508.99 38.8276 503.493 34.9778 498.011C22.1495 479.745 9.47618 460.361 3.88883 437.364C1.99133 429.221 0.819804 420.856 0.394305 412.412C0.0971739 407.282 -0.0061765 402.122 0.00028287 396.953C0.00028287 393.518 0.0411926 390.09 0.123011 386.67C0.168227 384.176 0.23928 381.689 0.297415 379.203C0.297415 378.812 0.297415 378.421 0.297415 378.006C0.336171 376.849 0.362008 375.661 0.387846 374.535C0.943352 352.948 1.49455 331.358 2.04145 309.766C2.40963 295.379 2.80365 280.764 6.47258 267.072C6.89244 265.508 7.36397 263.944 7.86134 262.381C8.24244 261.208 8.64939 260.035 9.06279 258.909C17.2274 236.694 32.9625 218.435 46.9405 199.763C52.0672 193.067 56.8476 185.996 61.2545 178.588C67.9271 167.046 72.7522 154.801 73.818 140.968C73.9084 139.819 73.973 138.669 74.0053 137.496C74.0376 136.324 74.0441 135.151 74.0053 133.907C73.663 113.874 64.8524 94.6616 61.2351 75.3867C59.6074 66.7853 59.0196 58.1214 60.7055 49.3871C60.8605 48.5504 61.0414 47.7372 61.2351 46.9318C67.533 20.94 92.0851 7.30293 114.493 2.88495C137.746 -1.68941 161.433 -0.367929 184.654 3.6669C186.187 3.93276 187.716 4.21947 189.241 4.52704C194.046 5.47319 198.813 6.59136 203.561 7.79555C215.078 10.7122 226.485 14.1449 238.054 16.9834C252.878 20.6272 266.294 17.1476 281.08 14.6376C288.637 13.3552 296.229 12.4638 303.856 11.9633C310.203 11.5411 316.557 11.3899 322.917 11.5098C348.529 11.953 373.956 16.8404 398.421 26.0226C414.86 32.2235 431.047 40.4104 447.758 44.8753C453.469 46.4485 459.275 47.4657 465.12 47.917C465.579 47.964 466.044 47.9952 466.509 48.0187C506.066 50.1456 542.42 21.5421 581.693 16.178L583.017 16.006C587.334 15.4655 591.673 15.2045 596.013 15.224C632.625 15.4195 668.126 34.4833 701.753 53.289C711.998 59.0128 722.423 64.9008 730.749 74.1121C745.063 89.9465 750.98 113.796 749.869 137.45Z" fill="#4338EA"/>
</svg>
