<svg width="503" height="400" viewBox="0 0 503 400" fill="none" xmlns="http://www.w3.org/2000/svg">
<path d="M502.725 10.8145H22.7098V388.002H502.725V10.8145Z" fill="#190334"/>
<path opacity="0.8" d="M113.819 229.531H87.6765L76.3316 210.322H66.4418V70.6232H113.819V229.531Z" fill="url(#paint0_linear_802_1518)"/>
<path opacity="0.3" d="M253.345 246.12H129.522L109.449 226.912H91.9524V87.2124H175.773L253.345 246.12Z" fill="url(#paint1_linear_802_1518)"/>
<path opacity="0.4" d="M85.1846 206.922C85.1846 207.353 84.7676 207.703 84.2532 207.703H63.7287C63.2144 207.703 62.7973 207.353 62.7973 206.922V200.189C62.7973 199.758 63.2144 199.408 63.7287 199.408H84.2532C84.7676 199.408 85.1846 199.758 85.1846 200.189V206.922Z" fill="#39335D"/>
<path d="M97.6799 196.445C97.6799 196.876 97.2629 197.226 96.7485 197.226H76.224C75.7096 197.226 75.2926 196.876 75.2926 196.445V189.712C75.2926 189.281 75.7096 188.931 76.224 188.931H96.7485C97.2629 188.931 97.6799 189.281 97.6799 189.712V196.445Z" fill="#34285E"/>
<path opacity="0.7" d="M111.216 206.922C111.216 207.353 110.799 207.703 110.285 207.703H89.7603C89.2459 207.703 88.8289 207.353 88.8289 206.922V200.189C88.8289 199.758 89.2459 199.408 89.7603 199.408H110.285C110.799 199.408 111.216 199.758 111.216 200.189V206.922Z" fill="#39335D"/>
<path d="M156.51 219.583C156.51 220.014 156.093 220.363 155.578 220.363H135.054C134.539 220.363 134.122 220.014 134.122 219.583V212.849C134.122 212.418 134.539 212.069 135.054 212.069H155.578C156.093 212.069 156.51 212.418 156.51 212.849V219.583Z" fill="#34285E"/>
<path opacity="0.7" d="M169.005 209.105C169.005 209.536 168.588 209.886 168.074 209.886H147.549C147.035 209.886 146.618 209.536 146.618 209.105V202.372C146.618 201.941 147.035 201.591 147.549 201.591H168.074C168.588 201.591 169.005 201.941 169.005 202.372V209.105Z" fill="#39335D"/>
<path opacity="0.4" d="M182.541 219.583C182.541 220.014 182.124 220.363 181.61 220.363H161.086C160.571 220.363 160.154 220.014 160.154 219.583V212.849C160.154 212.418 160.571 212.069 161.086 212.069H181.61C182.124 212.069 182.541 212.418 182.541 212.849V219.583Z" fill="#39335D"/>
<path opacity="0.4" d="M209.093 187.714C209.093 188.145 208.676 188.494 208.162 188.494H187.637C187.123 188.494 186.706 188.145 186.706 187.714V180.98C186.706 180.549 187.123 180.2 187.637 180.2H208.162C208.676 180.2 209.093 180.549 209.093 180.98V187.714Z" fill="#39335D"/>
<path opacity="0.7" d="M235.124 187.714C235.124 188.145 234.707 188.494 234.192 188.494H213.668C213.153 188.494 212.736 188.145 212.736 187.714V180.98C212.736 180.549 213.153 180.2 213.668 180.2H234.192C234.707 180.2 235.124 180.549 235.124 180.98V187.714Z" fill="#39335D"/>
<path d="M499.601 2.08325H379.337V259.654H499.601V2.08325Z" fill="#39335D"/>
<path d="M499.601 2.08325H379.337V259.654H499.601V2.08325Z" fill="url(#paint2_linear_802_1518)"/>
<path d="M452.107 261.185L379.337 259.654V2.08328L396.704 0.38681L452.107 261.185Z" fill="url(#paint3_linear_802_1518)"/>
<path d="M437.126 105.111L402.765 87.2124V2.08325H437.126V105.111Z" fill="url(#paint4_linear_802_1518)"/>
<path d="M448.059 162.301L413.698 144.402V59.2726H448.059V162.301Z" fill="url(#paint5_linear_802_1518)"/>
<path d="M60.2712 256.853C60.2712 256.853 96.973 241.792 117.276 240.483C137.58 239.173 178.967 211.671 226.602 210.362C274.237 209.052 382 236.554 382 236.554C382 236.554 219.573 286.319 207.86 287.629C196.146 288.938 60.2712 256.853 60.2712 256.853Z" fill="#39486C"/>
<path opacity="0.5" d="M36.4609 250.041V394.105H502.418V237.38C502.418 237.38 405.641 225.632 356.444 230.216C307.248 234.799 260.395 257.062 223.692 256.407C186.99 255.753 75.6888 239.09 36.4609 250.041Z" fill="url(#paint6_linear_802_1518)"/>
<path d="M36.4609 250.032V394.097H502.418V237.372C502.418 237.372 405.641 225.624 356.444 230.207C307.248 234.79 262.567 256.29 225.968 258.685C178.07 261.819 79.6726 233.09 36.4609 250.032Z" fill="#34285E"/>
<path d="M36.4609 255.716V399.781H502.418V243.056C502.418 243.056 405.641 231.307 356.444 235.891C307.248 240.474 262.567 261.974 225.968 264.369C178.07 267.503 79.6726 238.773 36.4609 255.716Z" fill="url(#paint7_linear_802_1518)"/>
<path d="M36.6747 255.753V399.818H502.632V243.093C502.632 243.093 405.855 231.344 356.658 235.928C307.462 240.511 260.609 262.774 223.906 262.12C187.204 261.465 75.9026 244.802 36.6747 255.753Z" fill="url(#paint8_linear_802_1518)"/>
<path opacity="0.7" d="M354.856 282.429L282.506 296.776L237.659 318.261L194.515 329.94L194.75 335.615L117.006 332.923L128.053 354.419L204.511 373.634L266.622 350.749L289.784 357.693L358.312 322.852L354.856 282.429Z" fill="#190334"/>
<path d="M175.773 10.8145H22.7098V175.834H175.773V10.8145Z" fill="#6373A4"/>
<path d="M294.996 6.88542H200.763V175.834H294.996V6.88542Z" fill="#6373A4"/>
<path d="M39.3697 110.787H27.916V175.834H169.64L170.046 149.64H147.659V129.559H134.123V145.275L129.958 141.844V125.63H119.546V133.051H111.216V97.6899H98.7207V140.909H85.7051V122.137L69.9146 109.04H59.674V127.813L53.9471 122.792V111.223H49.2615V127.813H39.3697V110.787Z" fill="#516493"/>
<path d="M246.578 80.2275H243.454V85.0296H239.289V104.238H227.315V110.787H222.108V91.1415H212.737V101.182H200.763V175.834H294.475V125.63H284.583V85.9027H265.841V112.969H255.428V84.5931H250.222V80.664H248.14" fill="#516493"/>
<path opacity="0.7" d="M164.32 125.193H175.774V175.834H34.0496L33.6435 155.316H56.0303V139.6H69.5665V151.948L73.7315 149.266V136.544H84.144V142.219H92.4739V114.716H104.969V148.331H117.984V133.863L133.775 123.447H144.016V138.299L149.742 134.375V125.193H154.428V138.29H164.32V125.193Z" fill="url(#paint9_linear_802_1518)"/>
<path opacity="0.7" d="M294.475 117.335V175.834H200.763V136.544H210.655V105.548H229.397V126.503H239.81V104.675H245.016V101.619H247.098V77.6081H248.66V101.182H251.784V104.675H255.949V119.954H267.923V125.193H273.13V109.477H282.501V117.335H294.475Z" fill="url(#paint10_linear_802_1518)"/>
<path d="M364.759 2.08324H309.573V175.834H364.759V2.08324Z" fill="#39335D"/>
<path d="M364.759 13.8704H309.573V19.5457H364.759V13.8704Z" fill="#6373A4"/>
<path d="M309.573 17.7994H361.689L364.759 13.8704H309.573V17.7994Z" fill="#190334"/>
<path d="M364.759 19.1091H309.573V24.7844H364.759V19.1091Z" fill="#6373A4"/>
<path d="M309.573 23.0382H361.689L364.759 19.1091H309.573V23.0382Z" fill="#190334"/>
<path d="M364.759 24.3479H309.573V30.0231H364.759V24.3479Z" fill="#6373A4"/>
<path d="M309.573 28.2769H361.689L364.759 24.3479H309.573V28.2769Z" fill="#190334"/>
<path d="M364.759 29.5866H309.573V35.2618H364.759V29.5866Z" fill="#6373A4"/>
<path d="M309.573 33.5156H361.689L364.759 29.5866H309.573V33.5156Z" fill="#190334"/>
<path d="M364.759 34.8253H309.573V40.5006H364.759V34.8253Z" fill="#6373A4"/>
<path d="M309.573 38.7543H361.689L364.759 34.8253H309.573V38.7543Z" fill="#190334"/>
<path d="M364.759 40.064H309.573V45.7393H364.759V40.064Z" fill="#6373A4"/>
<path d="M309.573 43.993H361.689L364.759 40.064H309.573V43.993Z" fill="#190334"/>
<path d="M364.759 45.3027H309.573V50.978H364.759V45.3027Z" fill="#6373A4"/>
<path d="M309.573 49.2318H361.689L364.759 45.3027H309.573V49.2318Z" fill="#190334"/>
<path d="M364.759 50.5414H309.573V56.2167H364.759V50.5414Z" fill="#6373A4"/>
<path d="M309.573 54.4705H361.689L364.759 50.5414H309.573V54.4705Z" fill="#190334"/>
<path d="M364.759 55.7802H309.573V61.4554H364.759V55.7802Z" fill="#6373A4"/>
<path d="M309.573 59.7092H361.689L364.759 55.7802H309.573V59.7092Z" fill="#190334"/>
<path d="M364.759 61.0189H309.573V66.6941H364.759V61.0189Z" fill="#6373A4"/>
<path d="M309.573 64.9479H361.689L364.759 61.0189H309.573V64.9479Z" fill="#190334"/>
<path d="M364.759 66.2576H309.573V71.9329H364.759V66.2576Z" fill="#6373A4"/>
<path d="M309.573 70.1866H361.689L364.759 66.2576H309.573V70.1866Z" fill="#190334"/>
<path d="M364.759 71.4963H309.573V77.1716H364.759V71.4963Z" fill="#6373A4"/>
<path d="M309.573 75.4254H361.689L364.759 71.4963H309.573V75.4254Z" fill="#190334"/>
<path d="M364.759 76.735H309.573V82.4103H364.759V76.735Z" fill="#6373A4"/>
<path d="M309.573 80.6641H361.689L364.759 76.735H309.573V80.6641Z" fill="#190334"/>
<path d="M364.759 81.9737H309.573V87.649H364.759V81.9737Z" fill="#6373A4"/>
<path d="M309.573 85.9028H361.689L364.759 81.9737H309.573V85.9028Z" fill="#190334"/>
<path d="M364.759 87.2125H309.573V92.8877H364.759V87.2125Z" fill="#6373A4"/>
<path d="M309.573 91.1415H361.689L364.759 87.2125H309.573V91.1415Z" fill="#190334"/>
<path d="M364.759 92.4512H309.573V98.1264H364.759V92.4512Z" fill="#6373A4"/>
<path d="M309.573 96.3802H361.689L364.759 92.4512H309.573V96.3802Z" fill="#190334"/>
<path d="M364.759 97.6899H309.573V103.365H364.759V97.6899Z" fill="#6373A4"/>
<path d="M309.573 101.619H361.689L364.759 97.6899H309.573V101.619Z" fill="#190334"/>
<path d="M364.759 102.929H309.573V108.604H364.759V102.929Z" fill="#6373A4"/>
<path d="M309.573 106.858H361.689L364.759 102.929H309.573V106.858Z" fill="#190334"/>
<path d="M364.759 108.167H309.573V113.843H364.759V108.167Z" fill="#6373A4"/>
<path d="M309.573 112.096H361.689L364.759 108.167H309.573V112.096Z" fill="#190334"/>
<path d="M364.759 113.406H309.573V119.081H364.759V113.406Z" fill="#6373A4"/>
<path d="M309.573 117.335H361.689L364.759 113.406H309.573V117.335Z" fill="#190334"/>
<path d="M364.759 118.645H309.573V124.32H364.759V118.645Z" fill="#6373A4"/>
<path d="M309.573 122.574H361.689L364.759 118.645H309.573V122.574Z" fill="#190334"/>
<path d="M364.759 123.883H309.573V129.559H364.759V123.883Z" fill="#6373A4"/>
<path d="M309.573 127.813H361.689L364.759 123.883H309.573V127.813Z" fill="#190334"/>
<path d="M364.759 129.122H309.573V134.797H364.759V129.122Z" fill="#6373A4"/>
<path d="M309.573 133.051H361.689L364.759 129.122H309.573V133.051Z" fill="#190334"/>
<path d="M364.759 134.361H309.573V140.036H364.759V134.361Z" fill="#6373A4"/>
<path d="M309.573 138.29H361.689L364.759 134.361H309.573V138.29Z" fill="#190334"/>
<path d="M364.759 139.6H309.573V145.275H364.759V139.6Z" fill="#6373A4"/>
<path d="M309.573 143.529H361.689L364.759 139.6H309.573V143.529Z" fill="#190334"/>
<path d="M364.759 144.838H309.573V150.514H364.759V144.838Z" fill="#6373A4"/>
<path d="M309.573 148.767H361.689L364.759 144.838H309.573V148.767Z" fill="#190334"/>
<path d="M364.759 150.077H309.573V155.752H364.759V150.077Z" fill="#6373A4"/>
<path d="M309.573 154.006H361.689L364.759 150.077H309.573V154.006Z" fill="#190334"/>
<path d="M364.759 155.316H309.573V160.991H364.759V155.316Z" fill="#6373A4"/>
<path d="M309.573 159.245H361.689L364.759 155.316H309.573V159.245Z" fill="#190334"/>
<path d="M364.759 160.555H309.573V166.23H364.759V160.555Z" fill="#6373A4"/>
<path d="M309.573 164.484H361.689L364.759 160.555H309.573V164.484Z" fill="#190334"/>
<path d="M364.759 165.793H309.573V171.469H364.759V165.793Z" fill="#6373A4"/>
<path d="M309.573 169.722H361.689L364.759 165.793H309.573V169.722Z" fill="#190334"/>
<path d="M364.759 171.032H309.573V176.707H364.759V171.032Z" fill="#6373A4"/>
<path d="M309.573 174.961H361.689L364.759 171.032H309.573V174.961Z" fill="#190334"/>
<path d="M107.051 154.265C107.051 154.265 134.384 168.413 146.618 175.834" stroke="#342E4F" stroke-width="2" stroke-miterlimit="10"/>
<path d="M151.923 176.024C151.923 176.024 139.946 161.408 131.286 155.316" stroke="#342E4F" stroke-width="2" stroke-miterlimit="10"/>
<path d="M148.44 152.042C148.44 152.042 151.437 168.48 156.383 175.902" stroke="#342E4F" stroke-width="2" stroke-miterlimit="10"/>
<path d="M131.728 156.975C131.249 157.333 130.713 157.56 130.13 157.643C123.882 158.516 115.209 143.965 112.085 139.019C108.961 134.068 102.714 128.249 100.632 116.025C98.549 103.802 100.632 91.3598 100.632 91.3598C100.803 91.3947 100.965 91.4515 101.126 91.5301C103.911 92.8485 105.328 100.078 108.613 106.129C112.085 112.533 123.539 116.899 130.13 127.957C136.107 137.984 136.383 153.504 131.728 156.975Z" fill="#C1CFCA"/>
<path d="M150.268 155.634C147.253 157.713 142.578 157.162 140.199 152.989C136.378 146.292 140.891 135.815 142.281 131.449C143.666 127.083 144.015 119.225 145.749 119.225C145.749 119.225 145.79 119.404 145.868 119.719C146.301 121.421 147.816 127.14 149.57 130.576C151.653 134.653 152.345 141.346 153.037 149.204C153.298 152.164 152.085 154.377 150.268 155.634Z" fill="#C1CFCA"/>
<path d="M127.006 165.213C127.006 165.213 126.933 165.313 126.761 165.475C126.116 166.108 124.059 167.718 119.374 168.413C113.47 169.286 91.6037 160.555 87.7875 157.682C83.9714 154.809 79.1088 155.316 75.6414 150.37C72.5437 145.956 74.9698 143.629 75.5321 143.175C75.5997 143.118 75.6414 143.092 75.6414 143.092C75.6414 143.092 81.54 143.965 84.315 145.131C87.0951 146.292 98.5488 146.585 107.222 149.785C115.901 152.989 127.006 165.213 127.006 165.213Z" fill="#C1CFCA"/>
<path opacity="0.6" d="M126.761 165.475C126.116 166.108 124.059 167.718 119.374 168.413C113.47 169.286 91.6037 160.555 87.7875 157.682C83.9714 154.809 79.1088 155.316 75.6414 150.37C72.5437 145.956 74.9698 143.629 75.5321 143.175C77.4427 144.336 90.3438 152.09 100.282 155.316C109.664 158.363 123.398 164.06 126.761 165.475Z" fill="url(#paint11_linear_802_1518)"/>
<path opacity="0.7" d="M131.728 156.975C131.249 157.333 130.713 157.56 130.13 157.643C123.882 158.516 115.209 143.965 112.085 139.019C108.961 134.068 102.714 128.249 100.632 116.025C98.549 103.802 100.632 91.3598 100.632 91.3598C100.803 91.3947 100.965 91.4515 101.126 91.5301C102.141 96.4806 104.495 106.46 108.092 112.969C112.663 121.238 128.339 142.734 131.728 156.975Z" fill="url(#paint12_linear_802_1518)"/>
<path opacity="0.7" d="M150.268 155.634C147.253 157.713 142.578 157.162 140.199 152.989C136.378 146.292 140.891 135.815 142.281 131.449C143.666 127.083 144.015 119.225 145.749 119.225C145.749 119.225 145.79 119.404 145.868 119.719C145.868 125.446 146.061 138.246 147.659 142.341C149.294 146.523 152.048 151.186 150.268 155.634Z" fill="url(#paint13_linear_802_1518)"/>
<path d="M93.7745 156.811C93.7745 156.811 114.974 165.811 126.761 165.475" stroke="#EAE7C5" stroke-width="2" stroke-miterlimit="10"/>
<path d="M107.051 120.609C107.051 120.609 121.972 152.985 130.13 157.643" stroke="#EAE7C5" stroke-width="2" stroke-miterlimit="10"/>
<path d="M144.772 133.051C144.772 133.051 143.851 150.617 145.885 156.786" stroke="#EAE7C5" stroke-width="2" stroke-miterlimit="10"/>
<path d="M182.542 19.5456H175.773V175.834H182.542V19.5456Z" fill="#F2EED0"/>
<path d="M297.598 9.50479H290.83V175.834H297.598V9.50479Z" fill="#F2EED0"/>
<path opacity="0.7" d="M182.542 19.5456H175.773V175.834H182.542V19.5456Z" fill="url(#paint14_linear_802_1518)"/>
<path opacity="0.7" d="M297.598 9.50479H290.83V175.834H297.598V9.50479Z" fill="url(#paint15_linear_802_1518)"/>
<path d="M364.759 16.4898H309.573V178.017H364.759V16.4898Z" fill="url(#paint16_linear_802_1518)"/>
<path d="M279.897 9.06825H200.763V168.413H279.897V9.06825Z" fill="url(#paint17_linear_802_1518)"/>
<path d="M263.612 9.06825L200.763 103.474V63.5902L237.061 9.06825H263.612Z" fill="url(#paint18_linear_802_1518)"/>
<path d="M279.897 9.06825V36.1961L200.763 152.893V113.738L271.739 9.06825H279.897Z" fill="url(#paint19_linear_802_1518)"/>
<path d="M165.881 9.06825H39.8901V168.413H165.881V9.06825Z" fill="url(#paint20_linear_802_1518)"/>
<path d="M120.587 43.9931L48.2201 152.697H39.8901V125.324L94.0349 43.9931H120.587Z" fill="url(#paint21_linear_802_1518)"/>
<path d="M165.881 23.9113V28.517L71.0134 168.413H44.4616L142.453 23.9113H165.881Z" fill="url(#paint22_linear_802_1518)"/>
<path d="M419.424 130.868C419.424 130.868 399.12 124.612 388.708 119.227C378.295 113.843 344.455 104.238 338.207 117.772C331.96 131.305 336.125 146.585 350.702 149.641C365.28 152.696 387.146 160.991 393.393 153.57C399.641 146.148 403.285 142.219 411.094 143.092C418.904 143.965 419.424 130.868 419.424 130.868Z" fill="#ED7625"/>
<path d="M417.342 132.771C417.342 132.771 397.955 127.489 387.543 122.104C377.13 116.72 344.455 104.238 338.207 117.772C331.96 131.305 336.125 146.585 350.702 149.641C365.28 152.696 387.146 160.991 393.393 153.57C399.641 146.148 403.285 142.219 411.095 143.092C418.904 143.965 417.342 132.771 417.342 132.771Z" fill="url(#paint23_linear_802_1518)"/>
<path d="M321.199 122.536C321.199 122.536 278.075 120.1 269.051 126.794C260.027 133.488 259.463 146.661 276.383 157.682C293.303 168.703 312.697 157.682 312.697 157.682L321.199 122.536Z" fill="#ED7625"/>
<path d="M320.588 126.939C320.588 126.939 280.631 123.302 271.607 129.995C262.583 136.689 259.464 146.661 276.384 157.682C293.304 168.703 312.697 157.682 312.697 157.682L320.588 126.939Z" fill="url(#paint24_linear_802_1518)"/>
<path d="M402.541 125.106C402.416 127.957 394.783 126.795 392.003 128.83C389.228 130.868 384.715 129.995 382.981 130.868C381.247 131.742 384.715 128.358 382.981 124.521C381.247 120.683 373.974 117.147 371.527 122.534C371.527 122.534 375.692 127.376 375 129.122C374.302 130.868 367.013 125.337 365.8 129.122C364.587 132.907 358.683 139.892 351.051 140.765C343.414 141.638 314.608 136.4 312.697 130.868C310.786 125.337 315.992 124.757 317.731 119.225C318.976 115.266 321.11 106.666 325.03 101.043C326.582 98.8162 328.409 97.0612 330.57 96.2361C338.208 93.3243 345.148 96.2361 345.148 96.2361C345.148 96.2361 347.23 92.3071 355.909 91.3597C364.187 90.4561 374.99 97.8296 381.69 106.342C382.014 106.753 382.331 107.172 382.633 107.587C389.228 116.606 392.352 118.645 396.517 119.225C400.682 119.81 402.666 122.251 402.541 125.106Z" fill="#190334"/>
<path d="M371.527 122.536C371.527 122.536 375.692 127.376 374.998 129.122C374.304 130.868 367.016 125.338 365.801 129.122C364.586 132.905 358.685 139.89 351.049 140.764C343.413 141.637 314.607 136.398 312.697 130.868C310.788 125.338 323.456 126.794 325.192 121.264C326.928 115.734 322.935 99.1445 330.571 96.2344C338.208 93.3239 345.149 96.2344 345.149 96.2344C345.149 96.2344 347.231 92.3054 355.908 91.3593C364.586 90.4133 376.039 98.5626 382.633 107.585C389.228 116.607 392.352 118.645 396.517 119.227C400.682 119.808 402.667 122.251 402.542 125.104C402.417 127.957 394.782 126.794 392.005 128.831C389.228 130.868 384.716 129.995 382.981 130.868C381.246 131.741 384.716 128.359 382.981 124.52C381.246 120.682 373.975 117.149 371.527 122.536Z" fill="url(#paint25_linear_802_1518)"/>
<path d="M400.161 143.092C400.161 143.092 410.774 141.054 412.829 135.234C414.884 129.413 414.884 129.413 414.884 129.413L407.97 127.067C407.97 127.067 412.427 127.487 414.884 124.521C417.34 121.555 426.077 124.521 426.077 124.521C426.077 124.521 429.835 126.212 429.835 128.831C429.835 131.45 432.959 133.098 438.512 133.148C444.066 133.197 452.616 133.488 457.712 136.107C462.809 138.727 477.529 161.251 482.215 184.824C486.9 208.397 483.663 250.403 468.102 274.909C452.541 299.415 429.774 317.342 429.774 317.342L365.8 267.329L343.216 240.482L361.176 192.027L400.161 143.092Z" fill="#B0B100"/>
<path d="M400.161 143.092C400.161 143.092 410.774 141.054 412.829 135.234C414.884 129.413 414.884 129.413 414.884 129.413L407.97 127.067C407.97 127.067 412.427 127.487 414.884 124.521C417.34 121.555 426.077 124.521 426.077 124.521C426.077 124.521 429.835 126.212 429.835 128.831C429.835 131.45 432.959 133.098 438.512 133.148C444.066 133.197 452.616 133.488 457.712 136.107C462.809 138.727 477.529 161.251 482.215 184.824C486.9 208.397 483.663 250.403 468.102 274.909C452.541 299.415 429.774 317.342 429.774 317.342L365.8 267.329L343.216 240.482L361.176 192.027L400.161 143.092Z" fill="url(#paint26_linear_802_1518)"/>
<path d="M457.95 162.925C462.636 186.499 454.243 218.809 438.682 243.318C423.12 267.822 429.774 317.341 429.774 317.341L385.662 282.857L365.8 267.328L343.215 240.48L361.177 192.026L372.802 177.436L400.161 143.092C400.161 143.092 410.771 141.053 412.828 135.234C414.884 129.415 414.884 129.415 414.884 129.415L407.97 127.066C407.97 127.066 412.428 127.485 414.884 124.521C416.457 122.626 420.59 123.154 423.371 123.783C424.938 124.137 426.077 124.521 426.077 124.521C426.077 124.521 429.837 126.21 429.837 128.83C429.837 131.449 432.96 133.099 438.51 133.147C444.065 133.195 452.614 133.488 457.711 136.107C462.808 138.727 453.265 139.351 457.95 162.925Z" fill="url(#paint27_linear_802_1518)"/>
<path d="M371.18 142.342C371.18 142.342 344.732 135.987 335.396 133.719C326.06 131.451 304.713 125.8 295.256 133.719C285.798 141.637 281.549 151.139 286.145 156.812C290.742 162.485 325.642 166.958 335.396 170.159C345.149 173.36 363.891 178.89 363.891 178.89L372.569 175.834L371.18 142.342Z" fill="#ED7625"/>
<path d="M368.924 149.641C368.924 149.641 343.378 138.374 334.042 136.106C324.706 133.838 304.713 125.801 295.256 133.719C285.798 141.638 281.549 151.14 286.145 156.812C290.742 162.485 325.642 166.958 335.396 170.159C345.149 173.36 363.891 178.89 363.891 178.89L372.569 175.834L368.924 149.641Z" fill="url(#paint28_linear_802_1518)"/>
<path d="M132.423 302.565C132.423 302.565 123.066 314.71 114.322 319.452C105.579 324.193 87.2561 324.875 81.7735 328.056C76.2908 331.237 77.6355 334.816 77.6355 334.816C77.6355 334.816 94.1799 335.781 108.202 336.599C122.225 337.417 136.265 338.026 139.089 335.451C141.912 332.877 141.77 324.991 143.807 320.953C145.845 316.914 151.092 310.281 151.092 310.281L132.423 302.565Z" fill="#ED7625"/>
<path d="M132.423 302.565C132.423 302.565 123.066 314.71 114.322 319.452C105.579 324.193 87.2561 324.875 81.7735 328.056C76.2908 331.237 77.6355 334.816 77.6355 334.816C77.6355 334.816 94.1799 335.781 108.202 336.599C122.225 337.417 136.265 338.026 139.089 335.451C141.912 332.877 141.77 324.991 143.807 320.953C145.845 316.914 151.092 310.281 151.092 310.281L132.423 302.565Z" fill="url(#paint29_linear_802_1518)"/>
<path d="M355.562 156.812C355.562 156.812 352.438 170.159 355.562 178.89C358.686 187.621 361.115 186.748 361.115 186.748C361.115 186.748 371.181 185.923 380.552 186.773C389.923 187.622 408.664 189.95 419.425 189.077C430.185 188.204 438.862 180.346 438.862 170.45C438.862 160.555 438.285 153.279 426.078 148.331C413.872 143.383 398.947 144.793 392.006 142.342C385.064 139.891 355.033 137.994 354.174 138.019C353.315 138.044 356.635 150.058 355.562 156.812Z" fill="#B0B100"/>
<path d="M438.859 170.451C438.859 180.344 430.186 188.202 419.425 189.075C408.663 189.948 389.921 187.621 380.55 186.774C371.179 185.923 361.115 186.748 361.115 186.748C361.115 186.748 358.684 187.621 355.56 178.89C352.436 170.159 355.56 156.813 355.56 156.813C356.117 153.316 355.497 148.414 354.888 144.493C354.815 144.031 354.743 143.577 354.675 143.145C354.196 140.167 353.811 138.032 354.175 138.019C355.034 137.993 385.064 139.892 392.003 142.341C392.16 142.398 392.321 142.45 392.488 142.503C396.876 143.878 404.066 143.935 411.73 144.904C416.52 145.511 421.492 146.475 426.078 148.331C438.287 153.277 438.859 160.555 438.859 170.451Z" fill="url(#paint30_linear_802_1518)"/>
<path d="M338.208 317.342C338.208 317.342 294.475 278.862 280.419 261.836C266.362 244.811 247.619 229.094 247.619 229.094L144.536 310.731C144.536 310.731 122.149 301.563 121.108 294.578C120.067 287.593 130.479 284.101 134.123 277.989C137.768 271.877 158.072 248.808 161.196 243.753C164.32 238.699 178.786 220.272 178.786 220.272C178.786 220.272 205.449 192.423 210.655 185.438C215.861 178.453 232.001 162.632 237.207 156.573C242.413 150.514 246.057 142.219 249.702 143.093C253.346 143.966 257.511 142.737 276.514 154.265C295.517 165.793 338.728 305.181 338.208 317.342Z" fill="#6BA6C6"/>
<path opacity="0.5" d="M338.208 317.342C338.208 317.342 294.475 278.862 280.419 261.836C266.362 244.811 247.619 229.094 247.619 229.094L144.536 310.731C144.536 310.731 122.149 301.563 121.108 294.578C120.067 287.593 130.479 284.101 134.123 277.989C137.768 271.877 158.072 248.808 161.196 243.753C164.32 238.699 178.786 220.272 178.786 220.272C178.786 220.272 205.449 192.423 210.655 185.438C215.861 178.453 232.001 162.632 237.207 156.573C242.413 150.514 246.057 142.219 249.702 143.093C253.346 143.966 257.511 142.737 276.514 154.265C295.517 165.793 338.728 305.181 338.208 317.342Z" fill="url(#paint31_linear_802_1518)"/>
<path d="M338.207 317.341C338.207 317.341 296.563 273.392 282.506 256.366C268.449 239.341 247.619 229.094 247.619 229.094L217.522 252.931L144.536 310.731C144.536 310.731 122.149 301.563 121.108 294.578C120.066 287.593 133.603 287.157 137.247 281.045C138.752 278.522 142.563 272.589 146.743 266.132C152.683 256.956 159.363 246.723 161.196 243.754C164.319 238.699 178.787 220.272 178.787 220.272C178.787 220.272 207.531 194.698 212.737 187.713C217.943 180.728 236.946 170.543 242.152 164.484C247.359 158.424 249.181 148.767 252.825 149.641C256.47 150.514 257.511 142.739 276.514 154.264C295.516 165.793 338.728 305.182 338.207 317.341Z" fill="url(#paint32_linear_802_1518)"/>
<path d="M217.522 252.931L144.536 310.731C144.536 310.731 122.149 301.563 121.108 294.578C120.066 287.593 133.603 287.157 137.247 281.045C138.752 278.522 142.563 272.589 146.743 266.132C148.253 271.205 152.564 275.051 163.799 270.053C177.356 264.019 199.206 257.497 217.522 252.931Z" fill="url(#paint33_linear_802_1518)"/>
<path opacity="0.5" d="M381.69 106.342C377.259 110.101 364.645 98.2094 360.594 101.182C356.429 104.238 349.661 105.984 342.893 101.182C336.833 96.8822 327.025 100.279 325.03 101.043C326.582 98.8162 328.409 97.0612 330.57 96.2361C338.208 93.3243 345.147 96.2361 345.147 96.2361C345.147 96.2361 347.23 92.3071 355.909 91.3597C364.187 90.4561 374.99 97.8295 381.69 106.342Z" fill="url(#paint34_linear_802_1518)"/>
<path d="M418.904 159.681C409.533 159.681 403.806 146.585 396.704 149.741C389.604 152.902 411.615 171.032 402.993 170.595C394.367 170.159 384.022 157.062 371.788 147.458C365.691 142.673 359.532 142.979 354.888 144.493C354.321 140.835 353.758 138.032 354.175 138.019C355.034 137.993 385.063 139.892 392.003 142.341C396.34 143.874 403.78 143.9 411.73 144.904C412.713 150.453 426.188 159.681 418.904 159.681Z" fill="url(#paint35_linear_802_1518)"/>
<path opacity="0.5" d="M392.488 142.503C390.317 143.276 387.646 143.856 384.803 143.633C377.775 143.083 371.267 143.31 362.698 143.603C359.204 143.721 356.569 143.476 354.675 143.145C354.196 140.167 353.811 138.032 354.175 138.019C355.034 137.993 385.064 139.892 392.004 142.341C392.16 142.398 392.321 142.45 392.488 142.503Z" fill="url(#paint36_linear_802_1518)"/>
<path d="M424.11 133.719C424.11 138.888 414.967 142.236 414.682 142.337C414.744 142.241 416.863 139.093 419.424 134.797C422.028 130.432 418.123 128.031 414.884 124.521C416.457 122.626 420.591 123.154 423.371 123.783C423.022 126.084 424.11 129.655 424.11 133.719Z" fill="url(#paint37_linear_802_1518)"/>
<path d="M385.662 282.857L365.8 267.328L343.215 240.48L361.177 192.026L372.802 177.436C378.238 181.003 389.827 189.752 392.487 201.011C395.996 215.854 397.292 234.691 402.545 243.318C407.116 250.818 390.842 275.588 385.662 282.857Z" fill="url(#paint38_linear_802_1518)"/>
<path d="M200.763 109.04L191.913 94.634V16.4898H200.763V109.04Z" fill="url(#paint39_linear_802_1518)"/>
<path d="M163.799 317.264C163.799 317.264 162.268 319.564 160.638 322.275C159.42 324.31 158.145 326.616 157.416 328.393C157.364 328.52 157.312 328.665 157.265 328.796C155.76 333.03 156.432 340.496 153.907 343.146C151.304 345.879 137.247 346.093 123.19 346.093C109.133 346.093 92.5513 346.093 92.5513 346.093C92.5513 346.093 90.9113 342.6 96.1176 339.108C101.324 335.615 119.546 333.869 127.876 328.63C131.572 326.304 135.274 322.514 138.241 319.022C138.699 318.48 139.142 317.948 139.564 317.428C139.892 317.027 140.204 316.634 140.506 316.25C142.963 313.12 144.535 310.656 144.535 310.656L158.978 315.533H158.983L163.799 317.264Z" fill="#ED7625"/>
<path d="M163.799 317.264C163.799 317.264 162.268 319.564 160.638 322.275C159.42 324.31 156.024 322.488 155.295 324.265C155.243 324.392 152.912 328.242 152.865 328.374C151.361 332.608 149.034 338.641 146.509 341.291C143.906 344.024 137.247 346.093 123.19 346.093C109.133 346.093 92.5513 346.093 92.5513 346.093C92.5513 346.093 90.9113 342.6 96.1176 339.108C101.324 335.615 119.546 333.869 127.876 328.63C131.572 326.304 135.274 322.514 138.241 319.022C138.699 318.48 139.142 317.948 139.564 317.428C139.892 317.027 140.204 316.634 140.506 316.25C142.963 313.12 144.535 310.656 144.535 310.656L158.978 315.533H158.983L163.799 317.264Z" fill="url(#paint40_linear_802_1518)"/>
<path d="M430.888 315.097C416.92 325.164 403.983 329.94 391.587 331.433C384.699 332.262 377.983 332.079 371.345 331.228C364.035 330.293 356.83 328.543 349.609 326.447C324.041 319.021 318.424 273.187 315.082 263.583C313.009 257.61 303.737 236.455 297.022 221.302C292.928 212.077 289.789 205.079 289.789 205.079C289.789 205.079 275.732 229.967 266.361 239.572C256.99 249.176 203.886 291.959 196.598 301.127C189.309 310.294 182.02 322.082 178.787 323.828C176.746 324.928 168.224 323.775 160.638 322.313C156.182 321.457 152.053 320.497 149.742 319.82C147.867 319.27 145.717 318.511 143.619 317.642C142.552 317.201 141.5 316.729 140.506 316.249C136.934 314.512 134.123 312.604 134.123 311.168C134.123 308.548 149.742 289.776 157.416 282.429C165.084 275.082 203.366 230.404 223.149 208.139C240.601 188.499 268.397 149.671 292.012 136.701C295.646 134.706 304.732 138.019 312.281 142.341C319.85 146.676 328.186 153.971 336.724 162.925C365.212 192.808 395.954 241.178 407.97 259.654C423.589 283.664 430.888 315.097 430.888 315.097Z" fill="#6BA6C6"/>
<path d="M430.888 315.097C418.831 323.789 407.538 328.534 396.704 330.629C394.987 330.961 393.284 331.228 391.587 331.433C384.699 332.262 377.983 332.079 371.345 331.228C364.035 330.293 356.83 328.543 349.609 326.447C324.041 319.021 318.424 273.187 315.082 263.583C313.009 257.61 303.737 236.455 297.022 221.302C292.928 212.077 289.789 205.079 289.789 205.079C289.789 205.079 275.732 229.967 266.361 239.572C256.99 249.176 203.886 291.959 196.598 301.127C189.309 310.294 182.02 322.082 178.787 323.828C176.746 324.928 168.224 323.775 160.638 322.313C156.182 321.457 152.053 320.497 149.742 319.82C148.727 319.523 147.633 319.165 146.509 318.759C145.556 318.414 144.582 318.039 143.619 317.641C143.562 317.615 143.499 317.593 143.442 317.567C142.437 317.148 141.443 316.703 140.506 316.248C136.934 314.512 134.123 312.604 134.123 311.168C134.123 308.548 149.742 289.776 157.416 282.429C165.084 275.082 203.366 230.404 223.149 208.139C240.054 189.114 266.668 152.081 289.784 137.993C289.789 137.989 289.789 137.989 289.789 137.989C290.534 137.535 291.278 137.107 292.012 136.701C295.646 134.706 304.732 138.019 312.281 142.341C319.85 146.676 328.186 153.971 336.724 162.925C365.212 192.808 395.954 241.178 407.97 259.654C423.589 283.664 430.888 315.097 430.888 315.097Z" fill="#6BA6C6"/>
<path opacity="0.3" d="M289.789 205.079C289.789 205.079 275.732 229.968 266.361 239.572C256.99 249.176 203.887 291.959 196.598 301.127C189.309 310.295 182.02 322.082 178.787 323.828C176.746 324.928 168.224 323.776 160.638 322.313C156.182 321.457 152.053 320.497 149.742 319.82C147.868 319.27 145.717 318.585 143.619 317.716C143.562 317.689 143.499 317.716 143.442 317.716H143.619C148.721 317.716 154.094 316.843 158.978 315.533H158.983C162.507 314.66 165.772 313.796 168.484 312.84C178.376 309.347 173.69 298.905 177.855 294.103C182.02 289.3 215.34 276.662 220.026 267.931C224.711 259.2 189.309 268.377 189.309 261.828C189.309 255.28 235.124 248.736 248.66 232.544C262.196 216.356 271.568 182.379 280.418 181.942C289.269 181.505 289.789 205.079 289.789 205.079Z" fill="url(#paint41_linear_802_1518)"/>
<path d="M430.889 315.097C416.92 325.164 403.983 329.94 391.587 331.433C386.12 330.678 381.872 330.136 379.639 330.472C377.775 330.752 374.891 331.005 371.346 331.228C364.035 330.293 356.83 328.543 349.61 326.447C324.042 319.021 318.424 273.187 315.082 263.583C313.01 257.611 303.737 236.455 297.022 221.302C301.775 222.912 308.881 226.204 314.259 232.548C323.11 242.99 334.043 233.897 345.497 217.744C352.67 207.624 344.117 181.234 336.724 162.925C365.212 192.808 395.955 241.178 407.971 259.654C423.589 283.664 430.889 315.097 430.889 315.097Z" fill="url(#paint42_linear_802_1518)"/>
<path opacity="0.3" d="M396.704 330.629C394.986 330.961 393.284 331.228 391.586 331.433C384.699 332.262 377.983 332.079 371.345 331.228C364.035 330.293 356.829 328.543 349.609 326.447C324.041 319.021 318.424 273.187 315.081 263.583C313.009 257.61 303.737 236.455 297.021 221.302C292.928 212.077 289.789 205.079 289.789 205.079C289.789 205.079 275.732 229.967 266.361 239.572C256.99 249.176 203.887 291.959 196.598 301.127C189.309 310.294 182.02 322.082 178.787 323.828C176.746 324.928 168.224 323.775 160.638 322.313C156.182 321.457 152.053 320.497 149.742 319.82C148.727 319.523 147.633 319.165 146.509 318.759C153.589 311.639 170.848 293.831 175.773 284.537C182.02 272.75 216.012 258.204 220.026 252.681C224.04 247.155 265.841 177.58 285.104 170.159C304.367 162.737 304.887 168.89 315.82 191.569C326.754 214.253 362.676 275.99 371.787 287.467C380.039 297.866 393.56 324.142 396.704 330.629Z" fill="url(#paint43_linear_802_1518)"/>
<path d="M135.982 307.621C135.982 307.621 136.31 307.755 136.921 307.994" stroke="#342E4F" stroke-width="2" stroke-miterlimit="10"/>
<path d="M138.817 308.719C146.117 311.452 166.092 318.336 181.9 318.26" stroke="#342E4F" stroke-width="2" stroke-miterlimit="10" stroke-dasharray="4.01 4.01"/>
<path d="M182.949 318.243C183.298 318.235 183.644 318.223 183.989 318.208" stroke="#342E4F" stroke-width="2" stroke-miterlimit="10"/>
<path opacity="0.5" d="M289.784 137.993C289.618 138.255 283.125 148.388 277.987 152.696C272.781 157.062 228.356 205.376 221.067 215.854C213.778 226.331 169.083 280.32 157.416 282.429C165.084 275.082 203.366 230.404 223.15 208.14C240.054 189.114 266.668 152.081 289.784 137.993Z" fill="url(#paint44_linear_802_1518)"/>
<path opacity="0.7" d="M354.867 256.365C354.867 256.365 367.362 238.622 388.707 232.548L406.929 249.571L354.867 256.365Z" fill="#190334"/>
<path d="M268.704 349.585C269.157 351.1 260.285 350.864 252.726 350.393C247.223 350.052 242.412 349.585 242.412 349.585L217.943 347.839L189.309 345.656L242.412 315.097C242.412 315.097 253.507 317.118 262.238 318.41C266.329 319.017 269.906 319.462 271.567 319.462C276.773 319.462 294.995 324.264 294.995 324.264C294.995 324.264 267.923 346.966 268.704 349.585Z" fill="#A3D4E5"/>
<path d="M432.286 252.681C432.286 252.681 446.115 253.454 452.106 261.185C458.099 268.915 453.489 297.517 455.333 305.633C457.177 313.75 465.474 340.805 462.708 349.309C459.942 357.812 441.044 365.156 417.536 361.677C394.028 358.199 405.091 310.902 406.935 309.814C408.779 308.725 432.286 252.681 432.286 252.681Z" fill="#39335D"/>
<path d="M450.662 284.974C450.662 284.974 446.115 253.454 452.107 261.185C458.099 268.915 453.49 297.517 455.334 305.633C457.177 313.75 465.474 340.805 462.708 349.309C459.943 357.812 441.045 365.156 417.536 361.677C394.029 358.199 443.612 311.744 445.455 310.655C447.299 309.566 450.662 284.974 450.662 284.974Z" fill="url(#paint45_linear_802_1518)"/>
<path d="M266.621 313.35L247.879 326.011L234.603 335.615H215.6L194.515 329.94L200.763 326.447C200.763 326.447 213.778 321.209 218.984 317.716C221.994 315.699 226.247 312.765 229.298 310.657C231.526 309.111 233.114 308.007 233.114 308.007L266.621 313.35Z" fill="#EFF0CD"/>
<path d="M417.537 361.677C425.374 358.199 438.741 354.72 438.279 329.983C437.819 305.247 435.053 289.4 436.436 279.737C437.819 270.074 442.428 259.638 432.287 252.68C422.146 245.723 380.662 236.833 361.764 250.362C342.865 263.889 335.952 279.023 334.108 297.159C332.264 315.295 329.038 338.486 323.507 347.376C317.975 356.265 317.975 363.995 344.71 364.382C371.444 364.769 417.537 361.677 417.537 361.677Z" fill="#6171A2"/>
<path opacity="0.5" d="M430.889 263.562C430.889 263.562 414.739 276.046 414.218 303.866C413.698 331.686 414.218 346.59 414.218 346.59C414.218 346.59 418.683 343.763 422.437 340.126C426.193 336.488 428.637 325.858 427.936 310.654C427.235 295.451 425.098 273.848 430.889 263.562Z" fill="url(#paint46_linear_802_1518)"/>
<path d="M423.069 274.353C421.684 284.014 417.399 303.637 417.863 328.373C418.321 353.112 425.376 358.198 417.535 361.678C417.535 361.678 371.444 364.769 344.71 364.384C317.976 363.995 317.976 356.264 323.505 347.376C325.822 343.656 327.733 337.427 329.31 330.114C331.496 319.955 333.033 307.706 334.105 297.158C335.953 279.024 342.867 263.888 361.766 250.364C372.184 242.903 389.474 242.261 404.587 244.352C416.884 246.05 427.74 249.56 432.289 252.682C442.426 259.636 424.449 264.687 423.069 274.353Z" fill="url(#paint47_linear_802_1518)"/>
<path d="M404.587 244.352C404.53 244.597 404.472 244.841 404.41 245.09C400.209 262.534 390.202 297.18 372.944 318.41C362.344 331.45 345.179 332.856 329.31 330.114C331.496 319.955 333.033 307.706 334.105 297.159C334.912 289.239 336.682 281.892 339.998 275.003C344.278 266.11 351.118 257.982 361.766 250.364C372.183 242.903 389.474 242.261 404.587 244.352Z" fill="url(#paint48_linear_802_1518)"/>
<path opacity="0.8" d="M404.587 244.352C404.53 244.597 404.472 244.841 404.41 245.09C396.637 249.988 381.669 260.614 375.224 273.318C366.321 290.868 354.857 294.142 354.857 294.142H342.893C342.893 294.142 344.538 283.682 347.62 278.762C349.499 275.758 344.32 275.078 339.998 275.003C344.278 266.111 351.118 257.982 361.766 250.364C372.183 242.903 389.474 242.261 404.587 244.352Z" fill="url(#paint49_linear_802_1518)"/>
<path d="M402.057 322.85C400.515 328.888 397.465 334.982 396.106 341.578C394.029 351.628 390.332 358.958 371.902 361.678C368.789 362.136 365.447 362.551 362 362.904C345.074 364.642 325.634 364.886 317.976 361.678C308.755 357.814 303.227 348.663 309.219 337.2C314.498 327.094 319.189 318.384 320.324 311.696C320.48 310.797 320.569 309.937 320.589 309.112C320.74 302.153 323.047 297.578 331.804 297.163C340.56 296.744 372.157 298.739 379.633 297.163C387.114 295.583 389.421 299.355 389.421 299.355C394.95 301.381 401.406 304.087 402.785 313.364C403.259 316.551 402.863 319.694 402.057 322.85Z" fill="#6171A2"/>
<path d="M402.057 322.85C398.939 321.113 395.153 318.694 391.265 315.892C389.541 314.652 387.579 313.835 385.355 313.337C376.869 311.43 364.546 314.154 347.011 315.682C339.337 316.354 332.277 315.35 326.275 313.674C324.151 313.084 322.162 312.411 320.324 311.696C320.48 310.797 320.569 309.937 320.59 309.111C320.741 302.153 323.047 297.578 331.804 297.163C338.743 296.831 360.042 298.014 372.294 297.735C375.495 297.661 378.082 297.486 379.634 297.163C387.115 295.583 389.422 299.355 389.422 299.355C394.951 301.38 401.407 304.087 402.786 313.364C403.259 316.55 402.863 319.694 402.057 322.85Z" fill="#39335D"/>
<path d="M427.927 250.368C427.776 256.423 425.37 256.79 423.486 256.126C422.246 255.689 421.226 254.807 421.226 254.807C421.226 254.807 423.069 241.086 417.306 239.344C411.542 237.607 399.563 235.869 396.793 237.218C394.029 238.572 390.343 242.265 390.343 243.317C390.343 244.369 382.044 244.95 382.044 244.95C382.044 244.95 387.579 232.971 393.108 232.582C396.569 232.337 403.379 233.464 409.288 234.333C412.813 234.857 416.02 235.289 417.998 235.289C423.298 235.289 428.177 240.327 427.927 250.368Z" fill="#D9E3C2"/>
<path d="M388.707 273.554V287.467C388.707 287.467 378.415 285.105 371.959 284.669C370.365 284.559 369.007 284.569 368.096 284.76C367.846 284.813 367.581 284.861 367.31 284.896C365.373 285.188 362.937 285.189 360.734 285.079C359.016 285 357.444 284.857 356.361 284.743C355.434 284.647 354.867 284.569 354.867 284.569V270.655C354.867 270.655 359.766 270.179 365.243 270.074C367.836 270.026 370.553 270.057 372.943 270.262C374.021 270.358 375.031 270.485 375.931 270.655C376.218 270.712 376.504 270.764 376.79 270.821C379.144 271.279 381.314 271.751 383.136 272.17C386.516 272.951 388.707 273.554 388.707 273.554Z" fill="#D9E3C2"/>
<path opacity="0.4" d="M234.603 335.615L264.279 318.706L259.7 318.026L234.603 335.615Z" fill="#190334"/>
<path opacity="0.3" d="M266.622 313.35L247.88 326.011L234.604 335.615H224.712C232.349 332.559 237.556 324.557 237.035 318.882C236.514 313.206 229.298 310.657 229.298 310.657C231.527 309.111 233.115 308.007 233.115 308.007L266.622 313.35Z" fill="url(#paint50_linear_802_1518)"/>
<path opacity="0.3" d="M268.704 349.585C269.157 351.1 260.286 350.864 252.727 350.393C256.803 346.494 263.436 339.392 265.32 332.921C268.095 323.391 255.205 321.065 255.205 321.065L262.238 318.41C266.33 319.018 269.907 319.462 271.568 319.462C276.774 319.462 294.996 324.265 294.996 324.265C294.996 324.265 267.924 346.966 268.704 349.585Z" fill="url(#paint51_linear_802_1518)"/>
<path d="M219.158 338.38L262.37 341.872" stroke="#342E4F" stroke-width="2" stroke-miterlimit="10"/>
<path d="M240.764 336.779L264.279 338.38" stroke="#342E4F" stroke-width="2" stroke-miterlimit="10"/>
<path d="M245.667 332.923L267.229 336.779" stroke="#342E4F" stroke-width="2" stroke-miterlimit="10"/>
<path d="M250.396 328.373L269.485 333.723" stroke="#342E4F" stroke-width="2" stroke-miterlimit="10"/>
<path d="M256.448 325.428L271.606 330.471" stroke="#342E4F" stroke-width="2" stroke-miterlimit="10"/>
<path d="M262.37 322.852L277.989 326.821" stroke="#342E4F" stroke-width="2" stroke-miterlimit="10"/>
<path d="M210.308 326.821L216.616 329.212L224.712 324.265L217.51 322.372L210.308 326.821Z" fill="#6BA6C6"/>
<path d="M229.571 325.792L236.165 326.821L249.441 318.41L242.152 316.115L229.571 325.792Z" fill="url(#paint52_linear_802_1518)"/>
<path d="M212.418 343.955C213.683 343.091 214.452 341.841 215.708 340.965C216.321 340.537 215.443 339.81 214.836 340.233C213.579 341.109 212.81 342.359 211.544 343.223C210.927 343.644 211.806 344.372 212.418 343.955Z" fill="#ED7625"/>
<path d="M207.836 343.743C209.091 344.059 210.421 344.001 211.675 344.317C212.44 344.509 212.763 343.511 212.003 343.319C210.748 343.002 209.418 343.061 208.164 342.745C207.4 342.552 207.076 343.551 207.836 343.743Z" fill="#ED7625"/>
<path d="M210.034 342.247C210.951 342.476 211.828 342.808 212.777 342.937C213.555 343.043 213.889 342.046 213.105 341.939C212.156 341.81 211.279 341.478 210.362 341.249C209.597 341.059 209.273 342.058 210.034 342.247Z" fill="#ED7625"/>
<path d="M215.447 338.312C212.917 337.173 210.081 337.832 208.325 339.686C206.803 341.292 206.642 343.71 208.72 345.043C211.103 346.571 214.518 346.725 216.618 344.774C218.762 342.782 217.837 339.949 215.708 338.278C215.128 337.823 214.254 338.553 214.836 339.01C216.456 340.282 217.19 342.049 216.005 343.739C214.691 345.613 211.867 345.398 209.909 344.485C207.893 343.544 208.121 341.555 209.384 340.221C210.715 338.816 212.93 338.354 214.824 339.206C215.525 339.521 216.148 338.628 215.447 338.312Z" fill="#ED7625"/>
<path d="M402.057 322.85C400.516 328.888 397.465 334.982 396.106 341.578C394.029 351.628 390.332 358.958 371.903 361.678C368.79 362.136 365.447 362.551 362 362.904C380.107 351.881 385.449 323.282 384.564 319.755C384.184 318.236 384.611 315.952 385.356 313.337C386.61 308.928 388.755 303.572 389.422 299.355C394.951 301.38 401.407 304.087 402.786 313.364C403.259 316.55 402.863 319.694 402.057 322.85Z" fill="url(#paint53_linear_802_1518)"/>
<g opacity="0.3">
<path opacity="0.3" d="M372.944 270.262C369.054 274.134 364.27 281.338 360.735 285.079C359.017 285 357.445 284.856 356.362 284.742C357.508 281.302 361.86 275.531 363.958 272.894C364.739 271.916 365.114 270.96 365.244 270.074C367.836 270.026 370.554 270.057 372.944 270.262Z" fill="url(#paint54_linear_802_1518)"/>
<path opacity="0.3" d="M371.96 284.669C375.157 280.792 379.087 275.239 383.138 272.17C381.316 271.751 379.145 271.279 376.791 270.821C374.667 274.567 369.685 280.805 367.311 284.896L371.96 284.669Z" fill="url(#paint55_linear_802_1518)"/>
</g>
<path d="M427.926 250.368C427.775 256.423 425.37 256.79 423.485 256.126C425.427 249.232 422.35 240.27 420.294 237.681C419.503 236.686 414.807 235.463 409.288 234.333C412.813 234.857 416.02 235.289 417.997 235.289C423.297 235.289 428.177 240.327 427.926 250.368Z" fill="url(#paint56_linear_802_1518)"/>
<path d="M325.19 321.811C325.19 321.811 323.274 328.339 320.588 332.923C317.902 337.507 312.001 347.984 321.719 349.44C331.438 350.895 355.423 355.552 361.999 350.75C368.575 345.947 370.487 336.617 371.787 331.969C373.088 327.32 372.943 322.372 372.943 322.372C372.943 322.372 339.768 326.488 325.19 321.811Z" fill="url(#paint57_linear_802_1518)"/>
<path d="M325.191 321.811L323.451 326.821C323.451 326.821 331.179 327.681 339.248 328.374C347.318 329.067 352.524 329.427 357.991 328.374C363.457 327.321 370.746 328.374 370.746 328.374L371.787 321.468C371.787 321.468 360.073 322.968 353.566 322.853C347.058 322.737 325.191 321.811 325.191 321.811Z" fill="url(#paint58_linear_802_1518)"/>
<path d="M365.788 327.949L364.653 337.34C364.653 337.34 363.978 337.361 362 336.779C360.022 336.196 363.955 327.906 363.955 327.906" fill="#D9E3C2"/>
<path d="M431.658 252.459C431.658 252.459 436.973 258.417 435.341 267.148C433.71 275.879 432.609 302.51 433.688 307.803C434.767 313.096 433.704 316.406 433.704 316.406H437.646" stroke="#D9E3C2" stroke-width="2" stroke-miterlimit="10" stroke-dasharray="4 4"/>
<path d="M372.293 297.735C372.293 297.735 346.995 305.732 339.998 303.864C333.001 302 326.842 310.941 326.275 313.674C324.15 313.084 322.162 312.411 320.324 311.696C320.48 310.797 320.569 309.937 320.589 309.111C320.74 302.153 323.047 297.578 331.804 297.163C338.743 296.831 360.042 298.014 372.293 297.735Z" fill="url(#paint59_linear_802_1518)"/>
<path d="M230.438 21.7285V34.8253H239.809L230.438 21.7285Z" fill="url(#paint60_linear_802_1518)"/>
<path d="M255.6 36.7156L249.53 36.816L237.899 37.0081C232.693 32.935 230.61 21.5844 230.61 21.5844L236.405 21.4927L249.181 21.2919C249.009 26.5307 255.6 36.7156 255.6 36.7156Z" fill="#E0E4CE"/>
<path d="M239.981 57.0898L237.425 57.1859L234.489 57.295L232 57.3911L228.356 57.5264V44.4296L235.702 45.4031L238.247 45.7393L239.981 57.0898Z" fill="#858A00"/>
<path d="M267.408 65.8211L247.619 66.2576L247.442 64.5114L245.885 48.9393L261.155 49.1619L266.012 49.2318L267.408 65.8211Z" fill="#AF4F55"/>
<path d="M234.234 52.9425L234.489 57.2951L232.001 57.3911V52.7243L234.234 52.9425Z" fill="#AF4F55"/>
<path d="M239.982 57.0898L237.425 57.1859L235.702 45.4031L238.248 45.7393L239.982 57.0898Z" fill="#AF4F55"/>
<path d="M239.981 57.0898L237.425 57.1859L234.489 57.295L232 57.3911L228.356 57.5264V44.4296L235.702 45.4031L238.247 45.7393L239.981 57.0898Z" fill="url(#paint61_linear_802_1518)"/>
<path d="M249.53 36.8148L237.899 37.0069C232.693 32.9338 230.61 21.5832 230.61 21.5832L236.405 21.4915C237.373 25.4511 240.476 33.9204 249.53 36.8148Z" fill="url(#paint62_linear_802_1518)"/>
<path d="M267.407 65.821L247.619 66.2576L247.442 64.5114H259.983L260.114 62.7651H253.345V60.5823H261.155V49.1619L266.012 49.2318L267.407 65.821Z" fill="url(#paint63_linear_802_1518)"/>
<path d="M258.162 51.5237C254.53 51.2989 250.777 52.7727 250.315 56.1046C249.846 59.4896 252.722 62.1348 256.523 62.8507C260.067 63.5182 263.794 61.9392 264.191 58.7405C264.516 56.122 262.197 51.7416 258.552 51.7416C257.511 51.7416 257.511 53.0512 258.552 53.0512C261.156 53.0512 262.758 56.6175 262.67 58.4109C262.522 61.4297 258.84 62.0693 255.967 61.3717C253.344 60.7352 251.711 58.6523 251.849 56.4206C252.022 53.6349 255.344 52.6579 258.17 52.8325C259.176 52.8958 259.16 51.5857 258.162 51.5237Z" fill="#B0C8BE"/>
<path d="M253.346 55.7802C253.346 55.7802 253.346 55.7802 253.346 56.2168C253.346 57.0899 254.908 57.0899 254.908 56.2168C254.908 55.7802 254.908 55.7802 254.908 55.7802C254.908 54.9071 253.346 54.9071 253.346 55.7802C253.346 55.7802 253.346 54.9071 253.346 55.7802Z" fill="#B0C8BE"/>
<path d="M259.069 56.0181C259.251 56.101 259.34 56.1766 259.439 56.3285C259.643 56.6415 260.149 56.7397 260.508 56.5638C260.883 56.3796 260.992 55.9814 260.788 55.668C260.577 55.3427 260.245 55.0642 259.857 54.887C259.483 54.7163 259.008 54.8075 258.788 55.1223C258.579 55.4231 258.696 55.8474 259.069 56.0181Z" fill="#B0C8BE"/>
<path d="M255.981 60.0632C257.107 59.1858 258.857 58.8968 260.241 59.511C261.13 59.9057 261.919 58.775 261.029 58.3799C259.01 57.4836 256.532 57.8482 254.877 59.1373C254.137 59.7127 255.244 60.6369 255.981 60.0632Z" fill="#B0C8BE"/>
<path d="M235.79 26.0941L236.685 28.2769H247.618L245.885 25.0424L235.79 26.0941Z" stroke="#342E4F" stroke-width="2" stroke-miterlimit="10"/>
<path opacity="0.5" d="M237.927 30.8962L239.981 34.8253H249.701L247.619 30.4597L237.927 30.8962Z" fill="url(#paint64_linear_802_1518)"/>
<path opacity="0.7" d="M261.507 46.3212L270.18 54.9071L268.965 53.5974L269.139 55.1253L267.408 54.8023L268.618 56.6507L258.685 47.7767L260.89 47.9221L261.507 46.3212Z" fill="url(#paint65_linear_802_1518)"/>
<path d="M36.7516 203.239C56.8058 203.239 73.063 189.607 73.063 172.791C73.063 155.975 56.8058 142.343 36.7516 142.343C16.6974 142.343 0.440277 155.975 0.440277 172.791C0.440277 189.607 16.6974 203.239 36.7516 203.239Z" fill="#EF703F"/>
<path d="M73.063 172.791C73.063 187.124 61.2506 199.141 45.3497 202.377C42.9387 202.869 40.4408 203.161 37.8673 203.225C37.4966 203.234 37.1228 203.239 36.7516 203.239C16.6967 203.239 0.440277 189.608 0.440277 172.791C0.440277 155.974 16.6967 142.343 36.7516 142.343C46.2738 142.343 54.9359 145.416 61.4141 150.44C66.8525 154.664 70.7504 160.271 72.3081 166.59C72.8016 168.592 73.063 170.667 73.063 172.791Z" fill="url(#paint66_linear_802_1518)"/>
<path d="M73.0635 172.791C73.0635 187.124 63.1404 199.141 49.7849 202.377C47.7597 202.869 45.6616 203.161 43.4989 203.225C43.1865 203.234 42.8741 203.239 42.5612 203.239C25.7165 203.239 12.06 189.608 12.06 172.791C12.06 155.974 25.716 142.343 42.5612 142.343C50.5596 142.343 57.8358 145.416 63.2784 150.44C67.8453 154.664 71.12 160.271 72.4288 166.59C72.8438 168.592 73.0635 170.667 73.0635 172.791Z" fill="url(#paint67_linear_802_1518)"/>
<path opacity="0.2" d="M73.0629 172.791C73.0629 187.124 61.2505 199.141 45.3496 202.376C44.8566 200.375 44.5942 198.299 44.5942 196.175C44.5942 181.842 56.4009 169.824 72.3074 166.59C72.8015 168.592 73.0629 170.667 73.0629 172.791Z" fill="url(#paint68_linear_802_1518)"/>
<defs>
<linearGradient id="paint0_linear_802_1518" x1="115.742" y1="212.878" x2="89.4867" y2="107.316" gradientUnits="userSpaceOnUse">
<stop stop-color="#EE782C" stop-opacity="0"/>
<stop offset="1" stop-color="#EE782C"/>
</linearGradient>
<linearGradient id="paint1_linear_802_1518" x1="136.103" y1="187.472" x2="236.258" y2="106.383" gradientUnits="userSpaceOnUse">
<stop stop-color="#F2F2F2" stop-opacity="0"/>
<stop offset="1" stop-color="#F2F2F2"/>
</linearGradient>
<linearGradient id="paint2_linear_802_1518" x1="405.031" y1="64.2265" x2="434.99" y2="146.677" gradientUnits="userSpaceOnUse">
<stop stop-color="#575581" stop-opacity="0"/>
<stop offset="1" stop-color="#130030"/>
</linearGradient>
<linearGradient id="paint3_linear_802_1518" x1="432.608" y1="97.432" x2="388.409" y2="224.756" gradientUnits="userSpaceOnUse">
<stop stop-color="#F2F2F2" stop-opacity="0"/>
<stop offset="1" stop-color="#F2F2F2"/>
</linearGradient>
<linearGradient id="paint4_linear_802_1518" x1="419.955" y1="52.9973" x2="418.49" y2="192.703" gradientUnits="userSpaceOnUse">
<stop stop-color="#EE782C" stop-opacity="0"/>
<stop offset="1" stop-color="#EE782C"/>
</linearGradient>
<linearGradient id="paint5_linear_802_1518" x1="438.677" y1="109.507" x2="370.905" y2="14.7155" gradientUnits="userSpaceOnUse">
<stop stop-color="#F2F2F2" stop-opacity="0"/>
<stop offset="1" stop-color="#F2F2F2"/>
</linearGradient>
<linearGradient id="paint6_linear_802_1518" x1="215.796" y1="337.656" x2="76.3312" y2="395.274" gradientUnits="userSpaceOnUse">
<stop stop-color="#F2F2F2" stop-opacity="0"/>
<stop offset="1" stop-color="#F2F2F2"/>
</linearGradient>
<linearGradient id="paint7_linear_802_1518" x1="268.735" y1="328.495" x2="397.704" y2="134.269" gradientUnits="userSpaceOnUse">
<stop stop-color="#F2F2F2" stop-opacity="0"/>
<stop offset="1" stop-color="#F2F2F2"/>
</linearGradient>
<linearGradient id="paint8_linear_802_1518" x1="197.709" y1="345.002" x2="346.038" y2="294.461" gradientUnits="userSpaceOnUse">
<stop stop-color="#575581" stop-opacity="0"/>
<stop offset="1" stop-color="#130030"/>
</linearGradient>
<linearGradient id="paint9_linear_802_1518" x1="104.709" y1="191.372" x2="104.709" y2="58.9048" gradientUnits="userSpaceOnUse">
<stop stop-color="#575581" stop-opacity="0"/>
<stop offset="1" stop-color="#130030"/>
</linearGradient>
<linearGradient id="paint10_linear_802_1518" x1="247.619" y1="191.372" x2="247.619" y2="58.9048" gradientUnits="userSpaceOnUse">
<stop stop-color="#575581" stop-opacity="0"/>
<stop offset="1" stop-color="#130030"/>
</linearGradient>
<linearGradient id="paint11_linear_802_1518" x1="74.0973" y1="155.824" x2="126.761" y2="155.824" gradientUnits="userSpaceOnUse">
<stop stop-color="#575581" stop-opacity="0"/>
<stop offset="1" stop-color="#130030"/>
</linearGradient>
<linearGradient id="paint12_linear_802_1518" x1="99.7059" y1="124.52" x2="131.728" y2="124.52" gradientUnits="userSpaceOnUse">
<stop stop-color="#575581" stop-opacity="0"/>
<stop offset="1" stop-color="#130030"/>
</linearGradient>
<linearGradient id="paint13_linear_802_1518" x1="147.821" y1="114.905" x2="145.804" y2="147.263" gradientUnits="userSpaceOnUse">
<stop stop-color="#575581" stop-opacity="0"/>
<stop offset="1" stop-color="#130030"/>
</linearGradient>
<linearGradient id="paint14_linear_802_1518" x1="179.158" y1="80.7099" x2="179.158" y2="193.999" gradientUnits="userSpaceOnUse">
<stop stop-color="#575581" stop-opacity="0"/>
<stop offset="1" stop-color="#130030"/>
</linearGradient>
<linearGradient id="paint15_linear_802_1518" x1="294.214" y1="80.7099" x2="294.214" y2="193.999" gradientUnits="userSpaceOnUse">
<stop stop-color="#575581" stop-opacity="0"/>
<stop offset="1" stop-color="#130030"/>
</linearGradient>
<linearGradient id="paint16_linear_802_1518" x1="316.914" y1="53.9926" x2="385.076" y2="261.061" gradientUnits="userSpaceOnUse">
<stop stop-color="#EE782C" stop-opacity="0"/>
<stop offset="1" stop-color="#EE782C"/>
</linearGradient>
<linearGradient id="paint17_linear_802_1518" x1="244.794" y1="92.9869" x2="385.723" y2="283.629" gradientUnits="userSpaceOnUse">
<stop stop-color="#F2F2F2" stop-opacity="0"/>
<stop offset="1" stop-color="#F2F2F2"/>
</linearGradient>
<linearGradient id="paint18_linear_802_1518" x1="227.766" y1="52.0662" x2="271.481" y2="111.202" gradientUnits="userSpaceOnUse">
<stop stop-color="#F2F2F2" stop-opacity="0"/>
<stop offset="1" stop-color="#F2F2F2"/>
</linearGradient>
<linearGradient id="paint19_linear_802_1518" x1="240.418" y1="81.0648" x2="299.52" y2="161.014" gradientUnits="userSpaceOnUse">
<stop stop-color="#F2F2F2" stop-opacity="0"/>
<stop offset="1" stop-color="#F2F2F2"/>
</linearGradient>
<linearGradient id="paint20_linear_802_1518" x1="108.908" y1="97.3595" x2="200.807" y2="284.427" gradientUnits="userSpaceOnUse">
<stop stop-color="#F2F2F2" stop-opacity="0"/>
<stop offset="1" stop-color="#F2F2F2"/>
</linearGradient>
<linearGradient id="paint21_linear_802_1518" x1="77.7875" y1="96.014" x2="126.201" y2="161.505" gradientUnits="userSpaceOnUse">
<stop stop-color="#F2F2F2" stop-opacity="0"/>
<stop offset="1" stop-color="#F2F2F2"/>
</linearGradient>
<linearGradient id="paint22_linear_802_1518" x1="107.733" y1="98.599" x2="167.051" y2="178.841" gradientUnits="userSpaceOnUse">
<stop stop-color="#F2F2F2" stop-opacity="0"/>
<stop offset="1" stop-color="#F2F2F2"/>
</linearGradient>
<linearGradient id="paint23_linear_802_1518" x1="379.151" y1="139.709" x2="384.871" y2="156.08" gradientUnits="userSpaceOnUse">
<stop stop-color="#575581" stop-opacity="0"/>
<stop offset="1" stop-color="#130030"/>
</linearGradient>
<linearGradient id="paint24_linear_802_1518" x1="264.256" y1="144.267" x2="320.588" y2="144.267" gradientUnits="userSpaceOnUse">
<stop stop-color="#575581" stop-opacity="0"/>
<stop offset="1" stop-color="#130030"/>
</linearGradient>
<linearGradient id="paint25_linear_802_1518" x1="358.455" y1="123.205" x2="342.499" y2="161.262" gradientUnits="userSpaceOnUse">
<stop stop-color="#EE782C" stop-opacity="0"/>
<stop offset="1" stop-color="#EE782C"/>
</linearGradient>
<linearGradient id="paint26_linear_802_1518" x1="416.323" y1="208.194" x2="409.345" y2="287.903" gradientUnits="userSpaceOnUse">
<stop stop-color="#575581" stop-opacity="0"/>
<stop offset="1" stop-color="#130030"/>
</linearGradient>
<linearGradient id="paint27_linear_802_1518" x1="395.345" y1="159.795" x2="416.384" y2="308.571" gradientUnits="userSpaceOnUse">
<stop stop-color="#575581" stop-opacity="0"/>
<stop offset="1" stop-color="#130030"/>
</linearGradient>
<linearGradient id="paint28_linear_802_1518" x1="319.112" y1="145.428" x2="346.565" y2="181.694" gradientUnits="userSpaceOnUse">
<stop stop-color="#575581" stop-opacity="0"/>
<stop offset="1" stop-color="#130030"/>
</linearGradient>
<linearGradient id="paint29_linear_802_1518" x1="111.382" y1="318.136" x2="121.442" y2="339.308" gradientUnits="userSpaceOnUse">
<stop stop-color="#575581" stop-opacity="0"/>
<stop offset="1" stop-color="#130030"/>
</linearGradient>
<linearGradient id="paint30_linear_802_1518" x1="385.583" y1="149.828" x2="421.22" y2="238.983" gradientUnits="userSpaceOnUse">
<stop stop-color="#575581" stop-opacity="0"/>
<stop offset="1" stop-color="#130030"/>
</linearGradient>
<linearGradient id="paint31_linear_802_1518" x1="181.277" y1="125.102" x2="216.938" y2="312.492" gradientUnits="userSpaceOnUse">
<stop stop-color="#575581" stop-opacity="0"/>
<stop offset="1" stop-color="#130030"/>
</linearGradient>
<linearGradient id="paint32_linear_802_1518" x1="121.051" y1="232.61" x2="338.212" y2="232.61" gradientUnits="userSpaceOnUse">
<stop stop-color="#575581" stop-opacity="0"/>
<stop offset="1" stop-color="#130030"/>
</linearGradient>
<linearGradient id="paint33_linear_802_1518" x1="121.051" y1="281.831" x2="217.522" y2="281.831" gradientUnits="userSpaceOnUse">
<stop stop-color="#575581" stop-opacity="0"/>
<stop offset="1" stop-color="#130030"/>
</linearGradient>
<linearGradient id="paint34_linear_802_1518" x1="392.03" y1="105.461" x2="295.02" y2="79.8869" gradientUnits="userSpaceOnUse">
<stop stop-color="#F2F2F2" stop-opacity="0"/>
<stop offset="1" stop-color="#F2F2F2"/>
</linearGradient>
<linearGradient id="paint35_linear_802_1518" x1="383.137" y1="142.77" x2="407.022" y2="202.526" gradientUnits="userSpaceOnUse">
<stop stop-color="#575581" stop-opacity="0"/>
<stop offset="1" stop-color="#130030"/>
</linearGradient>
<linearGradient id="paint36_linear_802_1518" x1="394.704" y1="137.224" x2="357.713" y2="145.189" gradientUnits="userSpaceOnUse">
<stop stop-color="#F2F2F2" stop-opacity="0"/>
<stop offset="1" stop-color="#F2F2F2"/>
</linearGradient>
<linearGradient id="paint37_linear_802_1518" x1="423.353" y1="140.089" x2="410.858" y2="111.22" gradientUnits="userSpaceOnUse">
<stop stop-color="#F2F2F2" stop-opacity="0"/>
<stop offset="1" stop-color="#F2F2F2"/>
</linearGradient>
<linearGradient id="paint38_linear_802_1518" x1="363.993" y1="196.96" x2="375.517" y2="278.452" gradientUnits="userSpaceOnUse">
<stop stop-color="#575581" stop-opacity="0"/>
<stop offset="1" stop-color="#130030"/>
</linearGradient>
<linearGradient id="paint39_linear_802_1518" x1="202.041" y1="67.9087" x2="243.931" y2="196.886" gradientUnits="userSpaceOnUse">
<stop stop-color="#EE782C" stop-opacity="0"/>
<stop offset="1" stop-color="#EE782C"/>
</linearGradient>
<linearGradient id="paint40_linear_802_1518" x1="130.422" y1="332.16" x2="176.569" y2="307.25" gradientUnits="userSpaceOnUse">
<stop stop-color="#575581" stop-opacity="0"/>
<stop offset="1" stop-color="#130030"/>
</linearGradient>
<linearGradient id="paint41_linear_802_1518" x1="143.442" y1="253.1" x2="289.789" y2="253.1" gradientUnits="userSpaceOnUse">
<stop stop-color="#575581" stop-opacity="0"/>
<stop offset="1" stop-color="#130030"/>
</linearGradient>
<linearGradient id="paint42_linear_802_1518" x1="297.021" y1="247.179" x2="430.888" y2="247.179" gradientUnits="userSpaceOnUse">
<stop stop-color="#575581" stop-opacity="0"/>
<stop offset="1" stop-color="#130030"/>
</linearGradient>
<linearGradient id="paint43_linear_802_1518" x1="146.509" y1="249.571" x2="396.704" y2="249.571" gradientUnits="userSpaceOnUse">
<stop stop-color="#575581" stop-opacity="0"/>
<stop offset="1" stop-color="#130030"/>
</linearGradient>
<linearGradient id="paint44_linear_802_1518" x1="157.416" y1="210.211" x2="289.784" y2="210.211" gradientUnits="userSpaceOnUse">
<stop stop-color="#F2F2F2" stop-opacity="0"/>
<stop offset="1" stop-color="#F2F2F2"/>
</linearGradient>
<linearGradient id="paint45_linear_802_1518" x1="483.268" y1="363.042" x2="426.853" y2="279.932" gradientUnits="userSpaceOnUse">
<stop stop-color="#575581" stop-opacity="0"/>
<stop offset="1" stop-color="#130030"/>
</linearGradient>
<linearGradient id="paint46_linear_802_1518" x1="414.633" y1="270.314" x2="432.02" y2="378.843" gradientUnits="userSpaceOnUse">
<stop stop-color="#F2F2F2" stop-opacity="0"/>
<stop offset="1" stop-color="#F2F2F2"/>
</linearGradient>
<linearGradient id="paint47_linear_802_1518" x1="380.503" y1="275.979" x2="374.638" y2="375.369" gradientUnits="userSpaceOnUse">
<stop stop-color="#575581" stop-opacity="0"/>
<stop offset="1" stop-color="#130030"/>
</linearGradient>
<linearGradient id="paint48_linear_802_1518" x1="368.697" y1="266.408" x2="364.39" y2="339.388" gradientUnits="userSpaceOnUse">
<stop stop-color="#575581" stop-opacity="0"/>
<stop offset="1" stop-color="#130030"/>
</linearGradient>
<linearGradient id="paint49_linear_802_1518" x1="361.383" y1="270.415" x2="452.261" y2="235.484" gradientUnits="userSpaceOnUse">
<stop stop-color="#EE782C" stop-opacity="0"/>
<stop offset="1" stop-color="#EE782C"/>
</linearGradient>
<linearGradient id="paint50_linear_802_1518" x1="250.933" y1="295.777" x2="245.773" y2="335.779" gradientUnits="userSpaceOnUse">
<stop stop-color="#575581" stop-opacity="0"/>
<stop offset="1" stop-color="#130030"/>
</linearGradient>
<linearGradient id="paint51_linear_802_1518" x1="278.651" y1="303.308" x2="272.63" y2="349.982" gradientUnits="userSpaceOnUse">
<stop stop-color="#575581" stop-opacity="0"/>
<stop offset="1" stop-color="#130030"/>
</linearGradient>
<linearGradient id="paint52_linear_802_1518" x1="229.571" y1="321.468" x2="249.441" y2="321.468" gradientUnits="userSpaceOnUse">
<stop stop-color="#575581" stop-opacity="0"/>
<stop offset="1" stop-color="#130030"/>
</linearGradient>
<linearGradient id="paint53_linear_802_1518" x1="404.566" y1="358.838" x2="373.195" y2="312.625" gradientUnits="userSpaceOnUse">
<stop stop-color="#575581" stop-opacity="0"/>
<stop offset="1" stop-color="#130030"/>
</linearGradient>
<linearGradient id="paint54_linear_802_1518" x1="369.254" y1="282.269" x2="362.547" y2="272.388" gradientUnits="userSpaceOnUse">
<stop stop-color="#575581" stop-opacity="0"/>
<stop offset="1" stop-color="#130030"/>
</linearGradient>
<linearGradient id="paint55_linear_802_1518" x1="379.045" y1="282.49" x2="373.11" y2="273.747" gradientUnits="userSpaceOnUse">
<stop stop-color="#575581" stop-opacity="0"/>
<stop offset="1" stop-color="#130030"/>
</linearGradient>
<linearGradient id="paint56_linear_802_1518" x1="418.774" y1="240.581" x2="417.775" y2="257.508" gradientUnits="userSpaceOnUse">
<stop stop-color="#575581" stop-opacity="0"/>
<stop offset="1" stop-color="#130030"/>
</linearGradient>
<linearGradient id="paint57_linear_802_1518" x1="345.041" y1="329.315" x2="343.533" y2="354.877" gradientUnits="userSpaceOnUse">
<stop stop-color="#575581" stop-opacity="0"/>
<stop offset="1" stop-color="#130030"/>
</linearGradient>
<linearGradient id="paint58_linear_802_1518" x1="347.761" y1="322.458" x2="347.338" y2="329.624" gradientUnits="userSpaceOnUse">
<stop stop-color="#575581" stop-opacity="0"/>
<stop offset="1" stop-color="#130030"/>
</linearGradient>
<linearGradient id="paint59_linear_802_1518" x1="336.613" y1="303.122" x2="401.073" y2="278.345" gradientUnits="userSpaceOnUse">
<stop stop-color="#EE782C" stop-opacity="0"/>
<stop offset="1" stop-color="#EE782C"/>
</linearGradient>
<linearGradient id="paint60_linear_802_1518" x1="236.399" y1="24.8002" x2="231.891" y2="42.2747" gradientUnits="userSpaceOnUse">
<stop stop-color="#575581" stop-opacity="0"/>
<stop offset="1" stop-color="#130030"/>
</linearGradient>
<linearGradient id="paint61_linear_802_1518" x1="234.168" y1="40.064" x2="234.168" y2="88.0856" gradientUnits="userSpaceOnUse">
<stop stop-color="#575581" stop-opacity="0"/>
<stop offset="1" stop-color="#130030"/>
</linearGradient>
<linearGradient id="paint62_linear_802_1518" x1="245.799" y1="36.387" x2="227.693" y2="15.1376" gradientUnits="userSpaceOnUse">
<stop stop-color="#575581" stop-opacity="0"/>
<stop offset="1" stop-color="#130030"/>
</linearGradient>
<linearGradient id="paint63_linear_802_1518" x1="254.511" y1="53.672" x2="267.095" y2="85.3008" gradientUnits="userSpaceOnUse">
<stop stop-color="#575581" stop-opacity="0"/>
<stop offset="1" stop-color="#130030"/>
</linearGradient>
<linearGradient id="paint64_linear_802_1518" x1="237.927" y1="32.6425" x2="249.701" y2="32.6425" gradientUnits="userSpaceOnUse">
<stop stop-color="#F2F2F2" stop-opacity="0"/>
<stop offset="1" stop-color="#F2F2F2"/>
</linearGradient>
<linearGradient id="paint65_linear_802_1518" x1="263.87" y1="39.775" x2="264.358" y2="54.0432" gradientUnits="userSpaceOnUse">
<stop stop-color="#F2F2F2" stop-opacity="0"/>
<stop offset="1" stop-color="#F2F2F2"/>
</linearGradient>
<linearGradient id="paint66_linear_802_1518" x1="0.440069" y1="172.791" x2="73.0629" y2="172.791" gradientUnits="userSpaceOnUse">
<stop stop-color="#575581" stop-opacity="0"/>
<stop offset="1" stop-color="#575581"/>
</linearGradient>
<linearGradient id="paint67_linear_802_1518" x1="59.6274" y1="120.224" x2="18.7561" y2="299.274" gradientUnits="userSpaceOnUse">
<stop stop-color="#575581" stop-opacity="0"/>
<stop offset="1" stop-color="#575581"/>
</linearGradient>
<linearGradient id="paint68_linear_802_1518" x1="91.5037" y1="106.85" x2="30.6788" y2="312.373" gradientUnits="userSpaceOnUse">
<stop stop-color="#F2F2F2" stop-opacity="0"/>
<stop offset="1" stop-color="#F2F2F2"/>
</linearGradient>
</defs>
</svg>
