<svg width="1036" height="405" viewBox="0 0 1036 405" fill="none" xmlns="http://www.w3.org/2000/svg">
<g filter="url(#filter0_d_126_29)">
<rect x="16.5195" y="8.75391" width="1003.48" height="371.573" rx="40" fill="url(#paint0_linear_126_29)"/>
</g>
<mask id="mask0_126_29" style="mask-type:alpha" maskUnits="userSpaceOnUse" x="16" y="8" width="1004" height="373">
<rect x="16.5195" y="8.75391" width="1003.48" height="371.573" rx="40" fill="url(#paint1_linear_126_29)"/>
</mask>
<g mask="url(#mask0_126_29)">
<path d="M817.902 -432.876C863.835 -485.554 886.802 -511.893 914.895 -527.117C952.353 -547.415 997.06 -555.225 1039.18 -548.826C1070.77 -544.027 1101.31 -527.034 1162.38 -493.046L1370.43 -377.263C1431.5 -343.275 1462.03 -326.282 1478.62 -304.271C1500.73 -274.923 1507.05 -238.714 1496.2 -203.609C1488.06 -177.28 1465.09 -150.941 1419.16 -98.2629L903.8 492.777C857.867 545.455 834.9 571.794 806.807 587.018C769.349 607.317 724.642 615.126 682.521 608.728C650.93 603.929 620.395 586.935 559.324 552.948L351.274 437.164C290.203 403.177 259.668 386.184 243.085 364.173C220.974 334.825 214.65 298.616 225.502 263.51C233.641 237.181 256.607 210.842 302.54 158.165L817.902 -432.876Z" fill="url(#paint2_linear_126_29)"/>
</g>
<defs>
<filter id="filter0_d_126_29" x="0.519531" y="0.753906" width="1035.48" height="403.572" filterUnits="userSpaceOnUse" color-interpolation-filters="sRGB">
<feFlood flood-opacity="0" result="BackgroundImageFix"/>
<feColorMatrix in="SourceAlpha" type="matrix" values="0 0 0 0 0 0 0 0 0 0 0 0 0 0 0 0 0 0 127 0" result="hardAlpha"/>
<feOffset dy="8"/>
<feGaussianBlur stdDeviation="8"/>
<feColorMatrix type="matrix" values="0 0 0 0 0.105882 0 0 0 0 0.223529 0 0 0 0 1 0 0 0 0.2 0"/>
<feBlend mode="normal" in2="BackgroundImageFix" result="effect1_dropShadow_126_29"/>
<feBlend mode="normal" in="SourceGraphic" in2="effect1_dropShadow_126_29" result="shape"/>
</filter>
<linearGradient id="paint0_linear_126_29" x1="165.3" y1="-162.741" x2="949.568" y2="13.4941" gradientUnits="userSpaceOnUse">
<stop stop-color="#454B79"/>
<stop offset="1" stop-color="#1433FF"/>
</linearGradient>
<linearGradient id="paint1_linear_126_29" x1="165.3" y1="-162.741" x2="949.568" y2="13.4941" gradientUnits="userSpaceOnUse">
<stop stop-color="#4960F9"/>
<stop offset="1" stop-color="#1433FF"/>
</linearGradient>
<linearGradient id="paint2_linear_126_29" x1="1266.4" y1="-435.154" x2="679.335" y2="619.737" gradientUnits="userSpaceOnUse">
<stop stop-color="#0B0B0B" stop-opacity="0.91"/>
<stop offset="1" stop-color="#40CEF2" stop-opacity="0.48"/>
</linearGradient>
</defs>
</svg>
